<?xml version="1.0" encoding="UTF-8"?>
<svg width="123px" height="50px" viewBox="0 0 123 50" version="1.1" xmlns="http://www.w3.org/2000/svg" xmlns:xlink="http://www.w3.org/1999/xlink">
    <title>Logo- Payoneer</title>
    <g id="Page-1" stroke="none" stroke-width="1" fill="none" fill-rule="evenodd">
        <g id="Home" transform="translate(-675.000000, -1133.000000)">
            <g id="Logo--Payoneer" transform="translate(675.000000, 1133.000000)">
                <g id="Group" transform="translate(0.000000, 0.000127)">
                    <g id="Asset---Logo---Payoneer" transform="translate(6.000000, 5.000000)">
                        <g id="Mask">
                            <path d="M29.4788278,3.28328358 C29.6222684,6.47701493 32.37234,18.6665672 32.37234,18.6665672 C33.3841616,21.1337313 34.2531378,18.6665672 34.2531378,18.6665672 C37.5811382,8.65283582 30.7819945,2.84925373 30.7819945,2.84925373 C29.0434469,1.83283582 29.4788278,3.28328358 29.4788278,3.28328358 M68.9764751,1.54238806 C68.9764751,1.54238806 72.3053683,3.8638806 68.9764751,4.29880597 C68.9764751,4.29880597 56.5337475,5.75044776 47.2737941,14.459403 C47.2737941,14.459403 33.3841616,26.6480597 28.1750658,40 C28.1750658,40 26.4403869,40 27.0201012,37.3880597 C27.5980299,34.7752239 31.0694709,23.3116418 46.5500441,9.23343284 C46.5500441,9.23343284 61.4541766,-4.40686567 68.9764751,1.54238806" id="Fill-1" fill="#DE4A2F"></path>
                            <path d="M8.31360259,11.5689552 C6.518512,11.5689552 4.66747362,11.7391045 3.47917841,12.0492537 L0,30.6985075 L3.89432286,30.6985075 L5.164159,23.8719403 C5.57841068,23.8997015 6.13163903,23.9829851 6.79408459,23.9829851 C9.05937465,23.9829851 11.2413382,23.4191045 12.7608562,22.2053731 C14.1973453,21.0776119 15.2752329,19.2441791 15.2752329,16.8740299 C15.2752329,15.04 14.5291633,13.6871642 13.2584344,12.84 C11.9058669,11.8513433 9.99947597,11.5689552 8.31360259,11.5689552 M7.31368476,21.0322388 C6.48726457,21.0322388 5.99028159,20.9641791 5.46086081,20.8620896 L6.71671,14.1283582 C7.11667714,14.060597 7.78001549,13.9928358 8.67369205,13.9928358 C10.5297895,13.9928358 12.0528787,14.7035821 12.0528787,16.8689552 C12.0528787,19.1710448 10.1643434,21.0322388 7.31368476,21.0322388" id="Fill-3" fill="#30312E"></path>
                        </g>
                        <path d="M23.8911916,16.5146269 C16.9521785,16.5146269 13.7720826,21.6176119 13.7720826,26.4026866 C13.7720826,29.3620896 15.5064639,31.3337313 18.0491122,31.3337313 C19.6980838,31.3337313 21.5193627,30.5507463 22.8505034,28.2029851 L22.9076415,28.2029851 C22.8505034,29.2164179 22.7633081,30.2032836 22.7338463,31.0143284 L26.5496042,31.0143284 C26.4936564,29.2450746 26.7820255,26.4614925 27.1275329,24.6352239 L28.5458687,17.2113433 C27.3894161,16.8325373 25.5973015,16.5146269 23.8911916,16.5146269 M19.4567346,28.4029851 C18.1779706,28.4029851 17.5711752,27.3474627 17.5711752,25.8095522 C17.5711752,22.8940299 19.7448062,19.241791 22.714205,19.241791 C23.1930347,19.241791 23.5766342,19.3050746 23.9277958,19.3701493 L23.2894554,22.9898507 C22.5853466,26.8343284 20.8307288,28.4029851 19.4567346,28.4029851" id="Fill-5" fill="#30312E"></path>
                        <path d="M51.9972155,16.5146269 C46.9675693,16.5146269 43.5550521,20.5743284 43.5550521,25.4746269 C43.5550521,28.9835821 45.9554501,31.3337313 49.5682485,31.3337313 L49.5968175,31.3337313 C54.4544541,31.3337313 58.0092215,27.5340299 58.0092215,22.3722388 C58.0092215,19.1250746 55.8129734,16.5146269 51.9972155,16.5146269 M49.9723819,28.5173134 C48.317756,28.5173134 47.3395625,27.3185075 47.3395625,25.5170149 C47.3395625,23.118209 48.7584936,19.3301493 51.5585611,19.3301493 C53.4828078,19.3301493 54.1562643,20.8158209 54.1562643,22.2674627 C54.1562643,24.8877612 52.6385319,28.5173134 50.0057125,28.5173134 L49.9723819,28.5173134" id="Fill-6" fill="#30312E"></path>
                        <path d="M69.0824188,16.5146269 C67.2322732,16.5146269 65.4687276,17.3558209 64.137587,19.1820896 L64.0813416,19.1820896 L64.3405465,16.8325373 L60.669122,16.8325373 C60.4953268,18.1095522 60.2637982,19.6465672 59.9165053,21.4441791 L58.1243906,31.0143284 L62.2874414,31.0143284 L63.4450844,24.721791 C64.052475,21.5898507 65.6127634,19.8779104 66.9715804,19.8779104 C68.0417305,19.8779104 68.3887258,20.5743284 68.3887258,21.5898507 C68.3887258,22.1113433 68.3300997,22.6635821 68.2429045,23.1555224 L66.7686208,31.0143284 L70.9325644,31.0143284 L72.4940432,22.7767164 C72.6098075,22.0829851 72.7246791,21.0379104 72.7246791,20.401194 C72.7246791,17.9355224 71.395324,16.5146269 69.0824188,16.5146269" id="Fill-7" fill="#30312E"></path>
                        <path d="M81.7272131,16.5146269 C76.6079909,16.5146269 73.4865212,21.0086567 73.4865212,25.3307463 C73.4865212,29.0423881 75.5678978,31.3337313 79.6160771,31.3337313 C81.1769607,31.3337313 83.2300658,31.0426866 84.8769543,30.2032836 L84.5897755,27.1874627 C83.4624872,27.7367164 82.1599157,28.0850746 80.6284939,28.0850746 C79.4140104,28.0850746 78.4596245,27.7080597 77.9111576,26.9838806 C77.6201101,26.5776119 77.4769671,25.9408955 77.4769671,25.5346269 C77.7555157,25.5414925 78.0287075,25.5453731 78.2968402,25.5453731 C83.4782597,25.5453731 86.6407975,24.1973134 86.6407975,20.7773134 C86.6407975,18.14 84.5897755,16.5146269 81.7272131,16.5146269 M77.7079005,22.8002985 C77.596005,22.8002985 77.4820262,22.8 77.3668571,22.7991045 C77.7165308,21.2152239 79.047969,19.2480597 81.3965855,19.2480597 C82.5521454,19.2480597 83.252683,19.8468657 83.252683,20.6901493 L83.252683,20.7247761 C83.252683,22.2608955 81.405811,22.8002985 77.7079005,22.8002985" id="Fill-8" fill="#30312E"></path>
                        <path d="M94.9710654,16.5146269 C89.8524384,16.5146269 86.7300759,21.0086567 86.7300759,25.3307463 C86.7300759,29.0423881 88.8117501,31.3337313 92.8590365,31.3337313 C94.420813,31.3337313 96.4739181,31.0426866 98.1219969,30.2032836 L97.8324374,27.1874627 C96.7054467,27.7367164 95.4037679,28.0850746 93.8714534,28.0850746 C92.6563746,28.0850746 91.7016912,27.7080597 91.1541171,26.9838806 C90.8639624,26.5776119 90.7199266,25.9408955 90.7199266,25.5346269 C90.9984751,25.5414925 91.2719646,25.5453731 91.5400973,25.5453731 C96.722112,25.5453731 99.8855425,24.1973134 99.8855425,20.7773134 C99.8855425,18.14 97.8324374,16.5146269 94.9710654,16.5146269 M90.9514552,22.8002985 C90.8398572,22.8002985 90.7258785,22.8 90.6107094,22.798806 C90.960383,21.2152239 92.2921188,19.2483582 94.6404378,19.2483582 C95.7959976,19.2483582 96.4965353,19.8468657 96.4965353,20.6901493 L96.4965353,20.7247761 C96.4965353,22.2608955 94.6475801,22.8002985 90.9514552,22.8002985" id="Fill-9" fill="#30312E"></path>
                        <path d="M109.329112,16.4859701 C107.391771,16.4859701 106.253769,17.8477612 105.271707,19.7626866 L105.157133,19.7626866 C105.271707,18.7471642 105.357117,17.7907463 105.41604,16.8325373 L101.830621,16.8325373 C101.909186,18.299403 101.691347,21.3259701 101.314889,23.4728358 L99.692106,31.0143284 L103.164737,31.0143284 L104.067342,25.7373134 C104.58724,22.9519403 105.98028,20.1176119 108.611016,20.1176119 C108.841652,20.1176119 109.074073,20.1176119 109.246678,20.1492537 L110.11,16.5146269 C109.877579,16.5146269 109.618671,16.4859701 109.329112,16.4859701" id="Fill-10" fill="#30312E"></path>
                    </g>
                </g>
            </g>
        </g>
    </g>
</svg>