<?xml version="1.0" encoding="UTF-8"?>
<svg width="250px" height="115px" viewBox="0 0 250 115" version="1.1" xmlns="http://www.w3.org/2000/svg" xmlns:xlink="http://www.w3.org/1999/xlink">
    <title>gett</title>
    <g id="gett" stroke="none" stroke-width="1" fill="none" fill-rule="evenodd">
        <g id="Group" transform="translate(39.000000, 29.000000)" fill-rule="nonzero">
            <path d="M80.3092472,13.4612649 C92.2883065,13.4612649 100.74789,22.7626136 100.74789,34.9969832 C100.74789,35.4103397 100.729782,36.2139973 100.71332,36.87438 C100.699021,37.4616226 100.21897,37.9301782 99.6317976,37.9300039 L69.0857722,37.9300039 C69.5055414,43.8800345 74.7814636,48.3215602 80.8969239,48.3215602 C85.4205539,48.3215602 87.9095381,46.674721 90.0429531,43.9310866 C90.3888242,43.4792773 91.0251158,43.3721057 91.499799,43.6857075 C92.903968,44.6408744 95.745229,46.2877138 97.2366442,47.2758174 C97.478273,47.438731 97.6406794,47.695416 97.6844689,47.9836086 C97.7282586,48.271801 97.6494303,48.5651712 97.4671056,48.7925564 C93.730337,53.5091043 88.4478304,56.5327013 80.8129701,56.5327013 C68.331834,56.5327013 59.4541278,47.6512967 59.4541278,34.9969832 C59.4541278,22.6786247 68.4157878,13.4612649 80.3092472,13.4612649 Z M80.1429857,21.4336143 C74.4456483,21.4336143 69.7557567,26.2094483 69.169726,30.9029405 L91.1162453,30.9029405 C90.5285684,25.4568427 86.0049384,21.4336143 80.1429857,21.4336143 Z" id="Combined-Shape" fill="#263238"></path>
            <path d="M124.885439,46.9662116 C120.350286,46.9662116 118.256379,44.8714318 118.256379,40.1598245 L118.256379,22.9289444 L122.990716,22.9289444 C123.588934,22.9289444 124.073886,22.443791 124.073886,21.8453239 L124.073886,15.4621747 C124.072979,14.8640838 123.588558,14.3794613 122.990716,14.3785544 L118.26461,14.3785544 L118.26461,4.12862625 C118.265047,3.84109825 118.151069,3.56522065 117.94784,3.36190739 C117.744612,3.15859416 117.468849,3.04500472 117.181441,3.04500472 L109.938365,3.04500472 C109.340147,3.04500472 108.855196,3.53015929 108.855196,4.12862625 L108.855196,14.3867886 L104.338151,14.3867886 C103.740576,14.3876971 103.256619,14.8725845 103.256619,15.4704089 L103.256619,21.8535582 C103.256191,22.1408007 103.369943,22.4164282 103.572816,22.6196938 C103.775688,22.8229594 104.051027,22.9371788 104.338151,22.9371785 L108.850257,22.9371785 L108.850257,41.9927553 C108.850257,50.8856878 113.996133,56.2148613 122.542963,56.2148613 C124.024501,56.2148613 125.071455,56.0501774 126.236931,55.6236459 C126.979098,55.3460569 127.467615,54.6327355 127.458872,53.8401189 L127.435331,47.9114972 C127.430185,47.6021348 127.292898,47.3097771 127.058166,47.1083151 C126.823435,46.906853 126.51372,46.815564 126.2073,46.8575201 C122.109786,46.837545 121.669166,46.8737755 124.885439,46.9662116 Z" id="Path" fill="#263238"></path>
            <path d="M150.636219,46.9662116 C146.101066,46.9662116 144.008805,44.8714318 144.008805,40.1598245 L144.008805,22.9289444 L148.743143,22.9289444 C149.030266,22.9289447 149.305605,22.8147253 149.508477,22.6114596 C149.71135,22.4081939 149.825102,22.1325664 149.824666,21.8453239 L149.824666,15.4621747 C149.824666,14.8643503 149.340717,14.3794629 148.743143,14.3785544 L144.008805,14.3785544 L144.008805,4.12862625 C144.008805,3.53015929 143.523854,3.04500597 142.925636,3.04500597 L135.68256,3.04500597 C135.395437,3.04500597 135.120098,3.15922498 134.917226,3.36249067 C134.714353,3.56575638 134.6006,3.84138383 134.601037,4.12862625 L134.601037,14.3867886 L130.090577,14.3867886 C129.492735,14.3876955 129.008314,14.872318 129.007408,15.4704089 L129.007408,21.8535582 C129.007408,22.1409522 129.121527,22.4165751 129.324661,22.6197935 C129.527794,22.8230116 129.803302,22.9371785 130.090577,22.9371785 L134.602684,22.9371785 L134.602684,41.9927566 C134.602684,50.8856891 139.74856,56.2148613 148.295389,56.2148613 C149.776927,56.2148613 150.823881,56.0501774 151.989357,55.6236459 C152.730582,55.3448537 153.21858,54.6322913 153.211072,53.8401189 L153.187757,47.9114972 C153.182143,47.6019905 153.044482,47.3096623 152.809502,47.1082567 C152.574522,46.906851 152.264659,46.8155989 151.958081,46.8575201 C151.520013,46.9200148 151.078608,46.9563097 150.636219,46.9662116 L150.636219,46.9662116 Z" id="Path" fill="#263238"></path>
            <path d="M26.8816876,27.0789795 L26.8816876,33.2348649 C26.8816876,33.5218222 26.9956333,33.7970265 27.1984582,33.9999359 C27.4012831,34.2028452 27.6763727,34.3168385 27.9632104,34.3168385 L44.6963612,34.3168385 C43.4469306,42.2216674 36.9594396,47.8406832 28.2875026,47.8406832 C17.7389506,47.8406832 9.53452137,39.0860851 9.53452137,28.3766888 C9.53452137,17.5882444 17.8163198,8.91104773 28.2084873,8.91104773 C34.0325785,8.91104773 38.97927,11.2709685 42.2221924,15.5264014 C42.556766,15.9639261 43.1671212,16.0789479 43.6378846,15.7931894 L49.9163141,11.993931 C50.1492812,11.852421 50.3120941,11.6194952 50.3650031,11.3520214 C50.417912,11.0845475 50.3560479,10.8071414 50.194514,10.5875302 C45.5852842,4.22908346 37.6672856,0 28.2875026,0 C12.746167,0 0,12.7415961 0,28.3766888 C0,44.0117818 12.510767,56.6743295 28.2084873,56.6743295 C43.7596999,56.6743295 54.3625749,44.8714318 54.3625749,29.62664 L54.3625749,27.1926113 C54.3625749,26.9052173 54.2484557,26.6295944 54.045322,26.4263761 C53.8421884,26.2231579 53.5666803,26.1089911 53.2794059,26.1089911 L27.851272,26.1089911 C27.3157853,26.1089911 26.8816876,26.5432697 26.8816876,27.0789795" id="Path" fill="#263238"></path>
            <path d="M166.249986,44.5025398 C163.833432,44.5025398 162.351894,44.8681381 161.500833,45.9056469 C160.768294,46.7949403 160.499971,48.1799321 160.499971,50.2549496 C160.499971,52.4435992 160.799571,53.8664684 161.627586,54.7475275 C162.496756,55.674698 163.948663,56.0057128 166.249986,56.0057128 C168.883831,56.0057128 170.398293,55.5742407 171.2082,54.3160556 C171.782708,53.4234685 172,52.1175249 172,50.2549496 C172,48.0333634 171.690524,46.6022601 170.83617,45.7228478 C169.981816,44.8434355 168.518386,44.5025398 166.249986,44.5025398 L166.249986,44.5025398 Z" id="Path" fill="#FF9D00"></path>
        </g>
    </g>
</svg>