<?xml version="1.0" encoding="UTF-8"?>
<svg width="250px" height="115px" viewBox="0 0 250 115" version="1.1" xmlns="http://www.w3.org/2000/svg" xmlns:xlink="http://www.w3.org/1999/xlink">
    <title>Amway__logo</title>
    <g id="Amway__logo" stroke="none" stroke-width="1" fill="none" fill-rule="evenodd">
        <g id="Group" transform="translate(15.000000, 20.000000)" fill-rule="nonzero">
            <path d="M0,75.625 C0,75.625 126.206756,44.9813904 219.712193,66.5701527 L220,65.5723704 C220,65.5723704 138.410858,41.7583536 1.56588561,70.7688455 L0,75.625 Z" id="Fill-1" fill="#F0174D"></path>
            <path d="M60.4469752,14.6215469 L60.4469752,19.7073284 C60.9072681,18.689117 61.4966546,17.3089919 63.0701155,16.002727 C64.7747862,14.5497972 67.2656583,13.75 69.6919838,13.75 C70.9374198,13.75 72.183914,13.9684143 73.4293501,14.4031325 C77.2979265,15.8581725 78.4121526,18.9075312 78.8703292,20.2148515 C81.8870993,14.6215469 86.6730868,13.8238599 89.2295639,13.8238599 C92.3764857,13.8238599 95.1297777,14.9866257 96.9667166,16.801469 C100.24379,19.9985475 100.375,23.4826244 100.375,32.2002028 L100.375,52.25 L90.7374199,52.25 L90.7374199,34.4529297 C90.7374199,28.4227966 90.6072681,27.1882811 89.6231937,25.5907969 C88.5735143,23.8477034 87.0656584,23.4826244 85.6234074,23.4826244 C83.0013254,23.4826244 81.6902844,25.3723827 81.4934695,25.6636017 C80.4437901,27.4795001 80.4437901,30.6027187 80.4437901,33.6531325 L80.4437901,52.25 L70.8062099,52.25 L70.8062099,33.2901639 C70.8062099,29.2225938 70.8062099,27.4066954 69.8231937,25.7353514 C69.1025973,24.5008359 67.6592881,23.4826244 65.8900705,23.4826244 C65.037206,23.4826244 64.1843417,23.7010387 63.3970821,24.1389223 C60.5781851,25.7353514 60.5125802,28.4966565 60.5125802,35.6146404 L60.5125802,52.25 L50.875,52.25 L50.875,14.6215469 L60.4469752,14.6215469 Z" id="Fill-3" fill="#004B85"></path>
            <polygon id="Fill-5" fill="#004B85" points="138.586135 13.75 148.5 13.75 138.586135 52.25 129.530866 52.25 123.780931 26.2364282 118.09819 52.25 108.913865 52.25 99 13.75 108.913865 13.75 114.13371 37.8322023 119.485811 13.75 128.07605 13.75 133.365223 37.8322023"></polygon>
            <path d="M169.150195,52.8149974 L178.75,52.8149974 L178.75,14.6337364 L169.350325,14.6337364 L169.350325,19.5632119 C167.618014,15.8829359 164.617134,13.75 160.817884,13.75 C154.284595,13.75 145.75,19.3420106 145.75,34.3505695 C145.75,46.2676538 151.884105,53.625 160.084072,53.625 C165.684496,53.625 167.950489,50.3881951 169.150195,48.6217909 L169.150195,52.8149974 Z M168.643413,33.3193656 C168.643413,36.7773716 168.177519,40.0879103 166.111656,42.5905836 C164.377192,44.5749833 162.444751,44.7235193 161.843283,44.7235193 C159.911917,44.7235193 157.709406,43.5459165 156.377356,40.2343093 C155.578985,38.3215061 155.312146,36.0411027 155.312146,33.6869656 C155.312146,30.7440272 155.711331,27.727355 157.378008,25.3005527 C158.577715,23.6078822 160.443447,22.5061504 162.24462,22.5061504 C163.709015,22.5061504 165.176638,23.240282 166.178367,24.4178849 C167.443708,25.8156204 168.643413,28.3920274 168.643413,33.3193656 L168.643413,33.3193656 Z" id="Fill-7" fill="#004B85"></path>
            <path d="M200.719801,13.75 L210.375,13.75 L199.749901,51.3884646 C198.973981,54.0241249 197.747527,58.3456295 195.874473,60.4686232 C194.128652,62.3714465 192.060575,63.25 184.371249,63.25 C183.272029,63.25 182.821495,63.1776736 181.851594,63.1042835 L181.851594,54.6825082 L184.371249,54.6825082 C185.275446,54.6825082 187.408184,54.6825082 188.378083,53.7316283 C189.151918,53.0732451 189.799561,51.4607909 189.799561,49.9238542 C189.799561,49.1176272 189.410558,47.6530168 189.089343,46.7010733 L178.75,13.75 L189.089343,13.75 L195.163213,39.3056952 L200.719801,13.75 Z" id="Fill-9" fill="#004B85"></path>
            <path d="M23.148052,0 L6.875,52.25 L18.8263702,52.25 L21.8642051,41.1487252 L37.1246454,41.1487252 L40.2316188,52.25 L52.25,52.25 L35.301519,0 L23.148052,0 Z M29.2928603,11.4713173 L34.4920679,31.601629 L24.3638241,31.601629 L29.2928603,11.4713173 Z" id="Fill-11" fill="#004B85"></path>
        </g>
    </g>
</svg>