<svg width="36" height="35" viewBox="0 0 36 35" fill="none" xmlns="http://www.w3.org/2000/svg">
<circle cx="17.6602" cy="17.5" r="17.5" fill="#AF8BEB"/>
<path d="M27.1602 17.9458V24.6004H23.3022V18.3914C23.3022 16.8316 22.7442 15.7672 21.3476 15.7672C20.2816 15.7672 19.6472 16.4846 19.3682 17.1784C19.2664 17.4266 19.2402 17.7718 19.2402 18.1192V24.6004H15.381C15.381 24.6004 15.433 14.0844 15.381 12.9948H19.24V14.6398C19.2322 14.6522 19.222 14.6654 19.2146 14.6774H19.24V14.6398C19.7526 13.8502 20.6682 12.7222 22.7176 12.7222C25.2568 12.7222 27.1602 14.381 27.1602 17.9458ZM11.344 7.40039C10.0238 7.40039 9.16016 8.26639 9.16016 9.40519C9.16016 10.5192 9.99876 11.4114 11.2928 11.4114H11.3186C12.6644 11.4114 13.5014 10.5194 13.5014 9.40519C13.476 8.26639 12.6644 7.40039 11.344 7.40039ZM9.38936 24.6004H13.2472V12.9948H9.38936V24.6004Z" fill="white"/>
</svg>
