<svg width="36" height="35" viewBox="0 0 36 35" fill="none" xmlns="http://www.w3.org/2000/svg">
<circle cx="17.6602" cy="17.5" r="17.5" fill="#AF8BEB"/>
<path d="M26.3609 17.6412C27.6247 17.537 28.4817 16.9625 28.8117 16.183C28.3557 16.463 26.9407 16.7682 26.1592 16.4775C26.1209 16.294 26.0782 16.1195 26.0362 15.962C25.4407 13.7755 23.4019 12.014 21.2657 12.2267C21.4384 12.157 21.6137 12.092 21.7887 12.0338C22.0237 11.9495 23.4034 11.725 23.1862 11.238C23.0029 10.8097 21.3174 11.5617 21.0002 11.66C21.4189 11.5025 22.1119 11.2315 22.1859 10.75C21.5442 10.838 20.9142 11.1415 20.4274 11.5827C20.6032 11.3935 20.7364 11.163 20.7647 10.9148C19.0527 12.0085 18.0527 14.2135 17.2434 16.3523C16.6079 15.7365 16.0447 15.2515 15.5394 14.9823C14.1219 14.222 12.4272 13.429 9.76666 12.4412C9.68491 13.3215 10.2019 14.492 11.6917 15.2703C11.3689 15.227 10.7787 15.3235 10.3067 15.4365C10.4989 16.445 11.1267 17.2757 12.8264 17.6775C12.0497 17.7287 11.6482 17.9055 11.2844 18.2865C11.6382 18.9878 12.5014 19.8133 14.0544 19.6438C12.3279 20.388 13.3504 21.7663 14.7554 21.5605C12.3587 24.036 8.57991 23.8542 6.41016 21.7837C12.0754 29.5035 24.3904 26.3492 26.2257 18.9135C27.6004 18.9253 28.4089 18.4373 28.9102 17.8993C28.1179 18.0338 26.9699 17.8947 26.3609 17.6412Z" fill="white"/>
</svg>
