<svg width="36" height="35" viewBox="0 0 36 35" fill="none" xmlns="http://www.w3.org/2000/svg">
<circle cx="17.6602" cy="17.5" r="17.5" fill="#AF8BEB"/>
<path d="M14.7758 11.486C14.7758 11.9396 14.7758 13.9642 14.7758 13.9642H12.9602V16.9946H14.7758V25.9998H18.5056V16.9948H21.0082C21.0082 16.9948 21.2426 15.5418 21.3562 13.953C21.0304 13.953 18.5196 13.953 18.5196 13.953C18.5196 13.953 18.5196 12.19 18.5196 11.881C18.5196 11.5714 18.9262 11.1548 19.3282 11.1548C19.7294 11.1548 20.576 11.1548 21.3602 11.1548C21.3602 10.7422 21.3602 9.3166 21.3602 8C20.3132 8 19.1224 8 18.5974 8C14.6836 7.9998 14.7758 11.0332 14.7758 11.486Z" fill="white"/>
</svg>
