<svg width="250" height="64" viewBox="0 0 250 64" fill="none" xmlns="http://www.w3.org/2000/svg">
<rect width="250" height="64" fill="white"/>
<path d="M20.88 23.62V28.68H32.59V35.38H20.88V47.31H13V16.93H33.45V23.62H20.88ZM39.74 47.31V16.93H47.62V47.31H39.74ZM77.5 47.31L62.98 28.72V47.3H55.1V16.93H62.98L77.51 35.51V16.93H85.39V47.31H77.5ZM113.17 47.31L111.21 42.03H100.33L98.24 47.31H89.96L101.43 16.93H110.17L121.6 47.31H113.17ZM105.79 26.36L102.51 36.02H109.07L105.79 26.36ZM166.43 23.62V47.3H158.55V23.62H151.25V16.93H173.87V23.62H166.43ZM194.57 47.31L187.01 35.65V47.31H179.13V16.93H191.43C194.3 16.93 196.8 17.48 198.85 19.62C200.58 21.4 201.45 23.9 201.45 26.36C201.45 28.27 200.86 30.41 199.72 31.96C198.49 33.64 196.85 34.42 194.85 34.87L204.37 47.3H194.57V47.31ZM188.51 23.03H187.01V30.55H188.51C190.97 30.55 193.34 29.59 193.34 26.77C193.34 23.94 190.92 23.03 188.51 23.03ZM229.69 47.31L227.73 42.03H216.85L214.76 47.31H206.43L218.09 16.93H226.7L238.13 47.31H229.69ZM222.31 26.36L219.03 36.02H225.59L222.31 26.36ZM146.81 42.82C144.83 46.68 140.09 48.2 136 48.2C132.18 48.2 128.35 46.84 125.22 44.68L128.73 38.31C130.71 40.06 133.05 41.44 135.77 41.44C137.7 41.44 139.59 40.61 139.59 38.4C139.59 33.06 126.57 37.11 126.57 26.35C126.57 20.14 130.8 16 136.97 16C140.37 16 143.36 16.73 146.35 18.29L143.67 24.78C142.15 23.54 140.33 22.63 138.3 22.63C136.74 22.63 134.9 23.5 134.9 25.3C134.9 29.81 147.96 26.86 147.96 37.35C147.96 39.1 147.64 41.26 146.81 42.82Z" fill="url(#paint0_linear_1_8)"/>
<defs>
<linearGradient id="paint0_linear_1_8" x1="13.0012" y1="32.1048" x2="238.111" y2="32.1048" gradientUnits="userSpaceOnUse">
<stop stop-color="#C137A2"/>
<stop offset="1" stop-color="#694ED6"/>
</linearGradient>
</defs>
</svg>
