<?xml version="1.0" encoding="UTF-8"?>
<!-- Created with Inkscape (http://www.inkscape.org/) -->
<svg width="162.19mm" height="42.862mm" version="1.1" viewBox="0 0 162.19 42.862" xmlns="http://www.w3.org/2000/svg" xmlns:cc="http://creativecommons.org/ns#" xmlns:dc="http://purl.org/dc/elements/1.1/" xmlns:rdf="http://www.w3.org/1999/02/22-rdf-syntax-ns#">
 <defs>
  <style>.cls-1{fill:#231f20;}.cls-2{fill:#0080c5;}</style>
 </defs>
 <metadata>
  <rdf:RDF>
   <cc:Work rdf:about="">
    <dc:format>image/svg+xml</dc:format>
    <dc:type rdf:resource="http://purl.org/dc/dcmitype/StillImage"/>
   </cc:Work>
  </rdf:RDF>
 </metadata>
 <g transform="translate(-54.182 -93.255)">
  <g transform="matrix(1.9541 0 0 1.9365 53.205 91.384)" fill="#00a2c7">
   <path d="m24.7 7.1c-4.4 0-8 3.6-8 8s3.6 8 8 8 8-3.6 8-8-3.6-8-8-8zm3.9 7.9c0 2.2-1.7 4-3.8 4s-3.8-1.8-3.8-4 1.7-4 3.8-4 3.8 1.8 3.8 4zm24.1-7.6c-0.1-0.1-0.2-0.1-0.3-0.1h-3.2c-0.2 0-0.4 0.2-0.4 0.4v14.5c0 0.1 0 0.2 0.1 0.3s0.2 0.1 0.3 0.1h3.2c0.2 0 0.4-0.2 0.4-0.4v-14.5c0-0.1 0-0.2-0.1-0.3zm-1.9-2c1.2 0 2.2-1 2.2-2.2 0.1-1.2-1-2.2-2.2-2.2s-2.2 1-2.2 2.2c0 1.3 1 2.2 2.2 2.2zm-4.3-4.1h-11.7c-0.2 0-0.4 0.2-0.4 0.4v20.5c0 0.1 0 0.2 0.1 0.3s0.2 0.1 0.3 0.1h3.2c0.2 0 0.4-0.2 0.4-0.4v-8.3h7.2c0.1 0 0.2 0 0.3-0.1s0.1-0.2 0.1-0.3v-3c0-0.2-0.2-0.4-0.4-0.4h-7.2v-5h8.1c0.1 0 0.2 0 0.3-0.1s0.1-0.2 0.1-0.3v-3c0-0.2-0.2-0.4-0.4-0.4zm-37.3 8.9c-3.2-1.4-4.2-2-4.2-3.2 0-1.6 1.5-2.1 2.9-2.1 1.5 0 3.1 0.8 3.1 3 0 0.2 0.1 0.3 0.3 0.3h3.5c0.1-0.1 0.2-0.2 0.2-0.3 0-4-2.9-6.9-7.1-6.9s-6.9 2.4-6.9 6c0 4.3 3.2 5.6 6.3 6.8l0.2 0.1c2.9 1.1 3.9 1.6 3.9 3 0 1.9-2 2.2-3.1 2.2-2.1 0-3.7-1.5-3.7-3.5v-0.2c0-0.2-0.1-0.3-0.3-0.3h-3.5c-0.1 0-0.3 0.1-0.3 0.3v0.3c0 4.4 3.2 7.4 7.7 7.4 4.3 0 7.2-2.5 7.2-6.1 0.1-3.7-1.8-5-6.2-6.8zm74.3 11.8c0 0.6-0.4 1-1 1s-1-0.4-1-1 0.4-1 1-1 1 0.4 1 1zm-1.8 0c0 0.5 0.3 0.8 0.8 0.8s0.8-0.3 0.8-0.8-0.3-0.8-0.8-0.8-0.8 0.3-0.8 0.8zm1.2-0.2c0 0.1-0.1 0.2-0.2 0.3l0.2 0.4h-0.3l-0.2-0.4h-0.1v0.4h-0.2v-1h0.4c0.2 0 0.4 0.1 0.4 0.3zm-0.5-0.1v0.3h0.1c0.1 0 0.2-0.1 0.2-0.1 0-0.1-0.1-0.1-0.2-0.1h-0.1zm-4.1-19.8c1.4 0 2.5 1.1 2.5 2.5s-1.1 2.5-2.5 2.5-2.5-1.1-2.5-2.5 1.1-2.5 2.5-2.5m0-0.9c-1.9 0-3.5 1.6-3.5 3.5s1.6 3.5 3.5 3.5 3.5-1.6 3.5-3.5-1.6-3.5-3.5-3.5z"/>
   <circle transform="rotate(-28.538,78.28,12.007)" cx="78.3" cy="12" r="3.5"/>
   <circle transform="rotate(-28.538,78.278,19.517)" cx="78.3" cy="19.5" r="3.5"/>
   <path d="m70.8 9.5c0.7 0 1.3 0.3 1.8 0.7 0.5 0.5 0.7 1.1 0.7 1.8 0 1.4-1.1 2.5-2.5 2.5-0.7 0-1.3-0.3-1.8-0.7-0.5-0.5-0.7-1.1-0.7-1.8-0.1-1.4 1.1-2.5 2.5-2.5m0-1c-1.9 0-3.5 1.6-3.5 3.5s1.6 3.5 3.5 3.5 3.5-1.6 3.5-3.5-1.6-3.5-3.5-3.5z"/>
   <circle transform="rotate(-66.11,63.267,12.004)" cx="63.3" cy="12" r="3.5"/>
   <circle transform="rotate(-66.11,70.777,4.494)" cx="70.8" cy="4.5" r="3.5"/>
   <circle transform="rotate(-66.11,63.267,4.494)" cx="63.3" cy="4.5" r="3.5"/>
   <circle transform="rotate(-66.11,70.777,19.514)" cx="70.8" cy="19.5" r="3.5"/>
   <path d="m63.3 17c0.7 0 1.3 0.3 1.8 0.7 0.5 0.5 0.7 1.1 0.7 1.8 0 1.4-1.1 2.5-2.5 2.5s-2.5-1.1-2.5-2.5c-0.1-1.4 1.1-2.5 2.5-2.5m0-1c-1.9 0-3.5 1.6-3.5 3.5s1.6 3.5 3.5 3.5 3.5-1.6 3.5-3.5-1.6-3.5-3.5-3.5z"/>
  </g>
 </g>
 <style type="text/css">.st0{fill:#E16A2D;}
	.st1{fill:#555759;}
	.st2{fill:#FFFFFF;}
	.st3{fill:#E16B2A;}</style>
</svg>
